<mxfile host="app.diagrams.net" agent="Mozilla/5.0 (Macintosh; Intel Mac OS X 10_15_7) AppleWebKit/537.36 (KHTML, like Gecko) Chrome/135.0.0.0 Safari/537.36" version="26.2.12">
  <diagram name="第 1 页" id="wSjhFtlE5rSjkm2_8n0r">
    <mxGraphModel dx="2135" dy="772" grid="1" gridSize="10" guides="1" tooltips="1" connect="1" arrows="1" fold="1" page="1" pageScale="1" pageWidth="827" pageHeight="1169" math="0" shadow="0">
      <root>
        <mxCell id="0" />
        <mxCell id="1" parent="0" />
        <mxCell id="Xc-ak-8Ur3aRFszlMYt9-62" value="" style="rounded=1;whiteSpace=wrap;html=1;direction=south;" vertex="1" parent="1">
          <mxGeometry x="341" y="578" width="35" height="72.5" as="geometry" />
        </mxCell>
        <mxCell id="Xc-ak-8Ur3aRFszlMYt9-60" value="" style="rounded=1;whiteSpace=wrap;html=1;direction=south;" vertex="1" parent="1">
          <mxGeometry x="305" y="577.5" width="35" height="72.5" as="geometry" />
        </mxCell>
        <mxCell id="Xc-ak-8Ur3aRFszlMYt9-57" value="" style="rounded=1;whiteSpace=wrap;html=1;direction=south;" vertex="1" parent="1">
          <mxGeometry x="630.51" y="372.35" width="69.49" height="97.65" as="geometry" />
        </mxCell>
        <mxCell id="Xc-ak-8Ur3aRFszlMYt9-52" value="" style="rounded=0;whiteSpace=wrap;html=1;direction=south;" vertex="1" parent="1">
          <mxGeometry x="210" y="520" width="60" height="120" as="geometry" />
        </mxCell>
        <mxCell id="Xc-ak-8Ur3aRFszlMYt9-51" value="" style="rounded=0;whiteSpace=wrap;html=1;direction=south;" vertex="1" parent="1">
          <mxGeometry x="130" y="520" width="60" height="120" as="geometry" />
        </mxCell>
        <mxCell id="Xc-ak-8Ur3aRFszlMYt9-47" value="" style="rounded=0;whiteSpace=wrap;html=1;direction=south;" vertex="1" parent="1">
          <mxGeometry x="50" y="520" width="60" height="120" as="geometry" />
        </mxCell>
        <mxCell id="Xc-ak-8Ur3aRFszlMYt9-46" value="" style="rounded=0;whiteSpace=wrap;html=1;direction=south;" vertex="1" parent="1">
          <mxGeometry x="-30" y="520" width="60" height="120" as="geometry" />
        </mxCell>
        <mxCell id="Xc-ak-8Ur3aRFszlMYt9-1" value="" style="rounded=0;whiteSpace=wrap;html=1;" vertex="1" parent="1">
          <mxGeometry x="188.23" y="320" width="315" height="160" as="geometry" />
        </mxCell>
        <mxCell id="kn4Wt94H1s8Y4rGw93dV-5" style="edgeStyle=orthogonalEdgeStyle;rounded=0;orthogonalLoop=1;jettySize=auto;html=1;" parent="1" source="kn4Wt94H1s8Y4rGw93dV-4" edge="1">
          <mxGeometry relative="1" as="geometry">
            <mxPoint x="320" y="375" as="targetPoint" />
          </mxGeometry>
        </mxCell>
        <mxCell id="kn4Wt94H1s8Y4rGw93dV-4" value="" style="shape=mxgraph.networks2.icon;aspect=fixed;fillColor=#EDEDED;strokeColor=#000000;gradientColor=#5B6163;network2IconShadow=1;network2bgFillColor=none;network2Icon=mxgraph.networks2.globe;network2IconW=1;network2IconH=1;" parent="1" vertex="1">
          <mxGeometry x="200" y="350" width="50" height="50" as="geometry" />
        </mxCell>
        <mxCell id="kn4Wt94H1s8Y4rGw93dV-6" value="" style="fillColorStyles=neutralFill;neutralFill=#9DA6A8;shape=mxgraph.networks2.icon;aspect=fixed;fillColor=#EDEDED;strokeColor=#000000;gradientColor=#5B6163;network2IconShadow=1;network2bgFillColor=none;network2Icon=mxgraph.networks2.modem;network2IconYOffset=0.0131;network2IconW=1;network2IconH=0.2938;" parent="1" vertex="1">
          <mxGeometry x="320" y="370" width="50" height="14.69" as="geometry" />
        </mxCell>
        <mxCell id="kn4Wt94H1s8Y4rGw93dV-8" value="光猫" style="text;html=1;align=center;verticalAlign=middle;resizable=0;points=[];autosize=1;strokeColor=none;fillColor=none;" parent="1" vertex="1">
          <mxGeometry x="320" y="340" width="50" height="30" as="geometry" />
        </mxCell>
        <mxCell id="kn4Wt94H1s8Y4rGw93dV-9" value="光纤" style="text;html=1;align=center;verticalAlign=middle;resizable=0;points=[];autosize=1;strokeColor=none;fillColor=none;" parent="1" vertex="1">
          <mxGeometry x="200" y="320" width="50" height="30" as="geometry" />
        </mxCell>
        <mxCell id="kn4Wt94H1s8Y4rGw93dV-11" value="" style="fillColorStyles=neutralFill;neutralFill=#9DA6A8;shape=mxgraph.networks2.icon;aspect=fixed;fillColor=#EDEDED;strokeColor=#000000;gradientColor=#5B6163;network2IconShadow=1;network2bgFillColor=none;network2Icon=mxgraph.networks2.router;network2IconXOffset=0.0001;network2IconYOffset=-0.1142;network2IconW=1;network2IconH=0.5485;" parent="1" vertex="1">
          <mxGeometry x="637.49" y="389.99" width="45.02" height="24.7" as="geometry" />
        </mxCell>
        <mxCell id="kn4Wt94H1s8Y4rGw93dV-96" style="edgeStyle=orthogonalEdgeStyle;rounded=0;orthogonalLoop=1;jettySize=auto;html=1;" parent="1" edge="1">
          <mxGeometry relative="1" as="geometry">
            <mxPoint x="662.02" y="325.34999999999997" as="targetPoint" />
            <mxPoint x="662.01" y="372.64" as="sourcePoint" />
          </mxGeometry>
        </mxCell>
        <mxCell id="kn4Wt94H1s8Y4rGw93dV-57" value="" style="shape=mxgraph.networks2.icon;aspect=fixed;fillColor=#EDEDED;strokeColor=#000000;gradientColor=#5B6163;network2IconShadow=1;network2bgFillColor=none;network2Icon=mxgraph.networks2.video_projector;network2IconYOffset=0.013;network2IconW=1;network2IconH=0.294;" parent="1" vertex="1">
          <mxGeometry x="440" y="370" width="50" height="14.7" as="geometry" />
        </mxCell>
        <mxCell id="kn4Wt94H1s8Y4rGw93dV-58" value="N5105" style="text;html=1;align=center;verticalAlign=middle;resizable=0;points=[];autosize=1;strokeColor=none;fillColor=none;" parent="1" vertex="1">
          <mxGeometry x="430" y="338" width="60" height="30" as="geometry" />
        </mxCell>
        <mxCell id="kn4Wt94H1s8Y4rGw93dV-59" style="edgeStyle=orthogonalEdgeStyle;rounded=0;orthogonalLoop=1;jettySize=auto;html=1;entryX=0;entryY=0.5;entryDx=0;entryDy=0;entryPerimeter=0;" parent="1" source="kn4Wt94H1s8Y4rGw93dV-6" target="kn4Wt94H1s8Y4rGw93dV-57" edge="1">
          <mxGeometry relative="1" as="geometry" />
        </mxCell>
        <mxCell id="kn4Wt94H1s8Y4rGw93dV-110" style="edgeStyle=orthogonalEdgeStyle;rounded=0;orthogonalLoop=1;jettySize=auto;html=1;" parent="1" source="kn4Wt94H1s8Y4rGw93dV-61" edge="1">
          <mxGeometry relative="1" as="geometry">
            <mxPoint y="520" as="targetPoint" />
          </mxGeometry>
        </mxCell>
        <mxCell id="kn4Wt94H1s8Y4rGw93dV-112" style="edgeStyle=orthogonalEdgeStyle;rounded=0;orthogonalLoop=1;jettySize=auto;html=1;" parent="1" source="kn4Wt94H1s8Y4rGw93dV-61" edge="1">
          <mxGeometry relative="1" as="geometry">
            <mxPoint x="80" y="520" as="targetPoint" />
          </mxGeometry>
        </mxCell>
        <mxCell id="kn4Wt94H1s8Y4rGw93dV-114" style="edgeStyle=orthogonalEdgeStyle;rounded=0;orthogonalLoop=1;jettySize=auto;html=1;" parent="1" source="kn4Wt94H1s8Y4rGw93dV-61" edge="1">
          <mxGeometry relative="1" as="geometry">
            <mxPoint x="160" y="520" as="targetPoint" />
          </mxGeometry>
        </mxCell>
        <mxCell id="kn4Wt94H1s8Y4rGw93dV-116" style="edgeStyle=orthogonalEdgeStyle;rounded=0;orthogonalLoop=1;jettySize=auto;html=1;" parent="1" source="kn4Wt94H1s8Y4rGw93dV-61" edge="1">
          <mxGeometry relative="1" as="geometry">
            <mxPoint x="240" y="520" as="targetPoint" />
          </mxGeometry>
        </mxCell>
        <mxCell id="kn4Wt94H1s8Y4rGw93dV-164" style="edgeStyle=orthogonalEdgeStyle;rounded=0;orthogonalLoop=1;jettySize=auto;html=1;" parent="1" edge="1">
          <mxGeometry relative="1" as="geometry">
            <mxPoint x="630" y="431" as="targetPoint" />
            <mxPoint x="370" y="431.4000000000001" as="sourcePoint" />
          </mxGeometry>
        </mxCell>
        <mxCell id="kn4Wt94H1s8Y4rGw93dV-61" value="" style="shape=mxgraph.networks2.icon;aspect=fixed;fillColor=#EDEDED;strokeColor=#000000;gradientColor=#5B6163;network2IconShadow=1;network2bgFillColor=none;network2Icon=mxgraph.networks2.patch_panel;network2IconXOffset=0.0001;network2IconYOffset=-0.0211;network2IconW=1;network2IconH=0.3359;" parent="1" vertex="1">
          <mxGeometry x="277.45000000000005" y="414.69" width="105.1" height="35.31" as="geometry" />
        </mxCell>
        <mxCell id="kn4Wt94H1s8Y4rGw93dV-97" value="" style="shape=mxgraph.networks2.icon;aspect=fixed;fillColor=#EDEDED;strokeColor=#000000;gradientColor=#5B6163;network2IconShadow=1;network2bgFillColor=none;network2Icon=mxgraph.networks2.tablet;network2IconW=1;network2IconH=0.6566;" parent="1" vertex="1">
          <mxGeometry x="597.4" y="234" width="130.23" height="85.51" as="geometry" />
        </mxCell>
        <mxCell id="kn4Wt94H1s8Y4rGw93dV-98" value="电视" style="text;html=1;align=center;verticalAlign=middle;resizable=0;points=[];autosize=1;strokeColor=none;fillColor=none;" parent="1" vertex="1">
          <mxGeometry x="637.51" y="210" width="50" height="30" as="geometry" />
        </mxCell>
        <mxCell id="Xc-ak-8Ur3aRFszlMYt9-38" style="edgeStyle=orthogonalEdgeStyle;rounded=0;orthogonalLoop=1;jettySize=auto;html=1;" edge="1" parent="1" source="kn4Wt94H1s8Y4rGw93dV-99">
          <mxGeometry relative="1" as="geometry">
            <mxPoint y="600" as="targetPoint" />
          </mxGeometry>
        </mxCell>
        <mxCell id="kn4Wt94H1s8Y4rGw93dV-99" value="" style="fillColorStyles=neutralFill;neutralFill=#9DA6A8;shape=mxgraph.networks2.icon;aspect=fixed;fillColor=#EDEDED;strokeColor=#000000;gradientColor=#5B6163;network2IconShadow=1;network2bgFillColor=none;network2Icon=mxgraph.networks2.router;network2IconXOffset=0.0001;network2IconYOffset=-0.1142;network2IconW=1;network2IconH=0.5485;" parent="1" vertex="1">
          <mxGeometry x="-18.23" y="550" width="36.46" height="20" as="geometry" />
        </mxCell>
        <mxCell id="kn4Wt94H1s8Y4rGw93dV-118" value="衣柜" style="text;html=1;align=center;verticalAlign=middle;resizable=0;points=[];autosize=1;strokeColor=none;fillColor=none;" parent="1" vertex="1">
          <mxGeometry x="-25.000000000000004" y="520" width="50" height="30" as="geometry" />
        </mxCell>
        <mxCell id="Xc-ak-8Ur3aRFszlMYt9-39" style="edgeStyle=orthogonalEdgeStyle;rounded=0;orthogonalLoop=1;jettySize=auto;html=1;" edge="1" parent="1" source="kn4Wt94H1s8Y4rGw93dV-123">
          <mxGeometry relative="1" as="geometry">
            <mxPoint x="78.23000000000002" y="600" as="targetPoint" />
          </mxGeometry>
        </mxCell>
        <mxCell id="kn4Wt94H1s8Y4rGw93dV-123" value="" style="fillColorStyles=neutralFill;neutralFill=#9DA6A8;shape=mxgraph.networks2.icon;aspect=fixed;fillColor=#EDEDED;strokeColor=#000000;gradientColor=#5B6163;network2IconShadow=1;network2bgFillColor=none;network2Icon=mxgraph.networks2.router;network2IconXOffset=0.0001;network2IconYOffset=-0.1142;network2IconW=1;network2IconH=0.5485;" parent="1" vertex="1">
          <mxGeometry x="60" y="550" width="36.46" height="20" as="geometry" />
        </mxCell>
        <mxCell id="Xc-ak-8Ur3aRFszlMYt9-40" style="edgeStyle=orthogonalEdgeStyle;rounded=0;orthogonalLoop=1;jettySize=auto;html=1;" edge="1" parent="1" source="kn4Wt94H1s8Y4rGw93dV-124">
          <mxGeometry relative="1" as="geometry">
            <mxPoint x="158.23000000000002" y="600" as="targetPoint" />
          </mxGeometry>
        </mxCell>
        <mxCell id="kn4Wt94H1s8Y4rGw93dV-124" value="" style="fillColorStyles=neutralFill;neutralFill=#9DA6A8;shape=mxgraph.networks2.icon;aspect=fixed;fillColor=#EDEDED;strokeColor=#000000;gradientColor=#5B6163;network2IconShadow=1;network2bgFillColor=none;network2Icon=mxgraph.networks2.router;network2IconXOffset=0.0001;network2IconYOffset=-0.1142;network2IconW=1;network2IconH=0.5485;" parent="1" vertex="1">
          <mxGeometry x="140" y="550" width="36.46" height="20" as="geometry" />
        </mxCell>
        <mxCell id="Xc-ak-8Ur3aRFszlMYt9-41" style="edgeStyle=orthogonalEdgeStyle;rounded=0;orthogonalLoop=1;jettySize=auto;html=1;" edge="1" parent="1" source="kn4Wt94H1s8Y4rGw93dV-125">
          <mxGeometry relative="1" as="geometry">
            <mxPoint x="238.23000000000002" y="600" as="targetPoint" />
          </mxGeometry>
        </mxCell>
        <mxCell id="kn4Wt94H1s8Y4rGw93dV-125" value="" style="fillColorStyles=neutralFill;neutralFill=#9DA6A8;shape=mxgraph.networks2.icon;aspect=fixed;fillColor=#EDEDED;strokeColor=#000000;gradientColor=#5B6163;network2IconShadow=1;network2bgFillColor=none;network2Icon=mxgraph.networks2.router;network2IconXOffset=0.0001;network2IconYOffset=-0.1142;network2IconW=1;network2IconH=0.5485;" parent="1" vertex="1">
          <mxGeometry x="220" y="550" width="36.46" height="20" as="geometry" />
        </mxCell>
        <mxCell id="kn4Wt94H1s8Y4rGw93dV-126" value="衣柜" style="text;html=1;align=center;verticalAlign=middle;resizable=0;points=[];autosize=1;strokeColor=none;fillColor=none;" parent="1" vertex="1">
          <mxGeometry x="53.230000000000004" y="520" width="50" height="30" as="geometry" />
        </mxCell>
        <mxCell id="kn4Wt94H1s8Y4rGw93dV-127" value="衣柜" style="text;html=1;align=center;verticalAlign=middle;resizable=0;points=[];autosize=1;strokeColor=none;fillColor=none;" parent="1" vertex="1">
          <mxGeometry x="133.23" y="520" width="50" height="30" as="geometry" />
        </mxCell>
        <mxCell id="kn4Wt94H1s8Y4rGw93dV-128" value="衣柜" style="text;html=1;align=center;verticalAlign=middle;resizable=0;points=[];autosize=1;strokeColor=none;fillColor=none;" parent="1" vertex="1">
          <mxGeometry x="213.23" y="520" width="50" height="30" as="geometry" />
        </mxCell>
        <mxCell id="kn4Wt94H1s8Y4rGw93dV-136" value="" style="shape=mxgraph.signs.tech.camera_1;html=1;pointerEvents=1;fillColor=#000000;strokeColor=none;verticalLabelPosition=bottom;verticalAlign=top;align=center;" parent="1" vertex="1">
          <mxGeometry x="313" y="611" width="20" height="20" as="geometry" />
        </mxCell>
        <mxCell id="kn4Wt94H1s8Y4rGw93dV-139" value="" style="shape=mxgraph.signs.tech.camera_1;html=1;pointerEvents=1;fillColor=#000000;strokeColor=none;verticalLabelPosition=bottom;verticalAlign=top;align=center;" parent="1" vertex="1">
          <mxGeometry x="347" y="611" width="20" height="20" as="geometry" />
        </mxCell>
        <mxCell id="kn4Wt94H1s8Y4rGw93dV-140" value="安防" style="text;html=1;align=center;verticalAlign=middle;resizable=0;points=[];autosize=1;strokeColor=none;fillColor=none;" parent="1" vertex="1">
          <mxGeometry x="299" y="579" width="50" height="30" as="geometry" />
        </mxCell>
        <mxCell id="kn4Wt94H1s8Y4rGw93dV-141" value="安防" style="text;html=1;align=center;verticalAlign=middle;resizable=0;points=[];autosize=1;strokeColor=none;fillColor=none;" parent="1" vertex="1">
          <mxGeometry x="330" y="580" width="50" height="30" as="geometry" />
        </mxCell>
        <mxCell id="kn4Wt94H1s8Y4rGw93dV-165" value="主路由" style="text;html=1;align=center;verticalAlign=middle;resizable=0;points=[];autosize=1;strokeColor=none;fillColor=none;" parent="1" vertex="1">
          <mxGeometry x="630" y="366.69" width="60" height="30" as="geometry" />
        </mxCell>
        <mxCell id="kn4Wt94H1s8Y4rGw93dV-167" value="" style="edgeStyle=elbowEdgeStyle;elbow=vertical;endArrow=classic;html=1;curved=0;rounded=0;endSize=8;startSize=8;entryX=0.4;entryY=0;entryDx=0;entryDy=0;entryPerimeter=0;" parent="1" edge="1">
          <mxGeometry width="50" height="50" relative="1" as="geometry">
            <mxPoint x="460" y="385" as="sourcePoint" />
            <mxPoint x="340" y="415" as="targetPoint" />
            <Array as="points">
              <mxPoint x="430" y="395" />
              <mxPoint x="345" y="395" />
            </Array>
          </mxGeometry>
        </mxCell>
        <mxCell id="kn4Wt94H1s8Y4rGw93dV-171" style="edgeStyle=orthogonalEdgeStyle;rounded=0;orthogonalLoop=1;jettySize=auto;html=1;" parent="1" edge="1">
          <mxGeometry relative="1" as="geometry">
            <mxPoint x="327" y="575" as="targetPoint" />
            <mxPoint x="327" y="463" as="sourcePoint" />
          </mxGeometry>
        </mxCell>
        <mxCell id="kn4Wt94H1s8Y4rGw93dV-172" style="edgeStyle=orthogonalEdgeStyle;rounded=0;orthogonalLoop=1;jettySize=auto;html=1;" parent="1" edge="1">
          <mxGeometry relative="1" as="geometry">
            <mxPoint x="353" y="577" as="targetPoint" />
            <mxPoint x="353" y="465" as="sourcePoint" />
          </mxGeometry>
        </mxCell>
        <mxCell id="kn4Wt94H1s8Y4rGw93dV-168" value="交换机" style="text;html=1;align=center;verticalAlign=middle;resizable=0;points=[];autosize=1;strokeColor=none;fillColor=none;" parent="1" vertex="1">
          <mxGeometry x="305" y="440" width="60" height="30" as="geometry" />
        </mxCell>
        <mxCell id="kn4Wt94H1s8Y4rGw93dV-173" style="edgeStyle=orthogonalEdgeStyle;rounded=0;orthogonalLoop=1;jettySize=auto;html=1;" parent="1" edge="1">
          <mxGeometry relative="1" as="geometry">
            <mxPoint x="630" y="445" as="targetPoint" />
            <mxPoint x="370" y="445.4000000000001" as="sourcePoint" />
          </mxGeometry>
        </mxCell>
        <mxCell id="kn4Wt94H1s8Y4rGw93dV-174" value="lan" style="text;html=1;align=center;verticalAlign=middle;resizable=0;points=[];autosize=1;strokeColor=none;fillColor=none;" parent="1" vertex="1">
          <mxGeometry x="630" y="414.69" width="40" height="30" as="geometry" />
        </mxCell>
        <mxCell id="Xc-ak-8Ur3aRFszlMYt9-31" style="edgeStyle=orthogonalEdgeStyle;rounded=0;orthogonalLoop=1;jettySize=auto;html=1;" edge="1" parent="1">
          <mxGeometry relative="1" as="geometry">
            <mxPoint x="630" y="417.15" as="targetPoint" />
            <mxPoint x="370" y="417.55000000000007" as="sourcePoint" />
          </mxGeometry>
        </mxCell>
        <mxCell id="Xc-ak-8Ur3aRFszlMYt9-35" value="lan" style="text;html=1;align=center;verticalAlign=middle;resizable=0;points=[];autosize=1;strokeColor=none;fillColor=none;" vertex="1" parent="1">
          <mxGeometry x="630" y="430" width="40" height="30" as="geometry" />
        </mxCell>
        <mxCell id="Xc-ak-8Ur3aRFszlMYt9-42" value="lan" style="text;html=1;align=center;verticalAlign=middle;resizable=0;points=[];autosize=1;strokeColor=none;fillColor=none;" vertex="1" parent="1">
          <mxGeometry x="-20" y="598" width="40" height="30" as="geometry" />
        </mxCell>
        <mxCell id="Xc-ak-8Ur3aRFszlMYt9-43" value="lan" style="text;html=1;align=center;verticalAlign=middle;resizable=0;points=[];autosize=1;strokeColor=none;fillColor=none;" vertex="1" parent="1">
          <mxGeometry x="60" y="598" width="40" height="30" as="geometry" />
        </mxCell>
        <mxCell id="Xc-ak-8Ur3aRFszlMYt9-44" value="lan" style="text;html=1;align=center;verticalAlign=middle;resizable=0;points=[];autosize=1;strokeColor=none;fillColor=none;" vertex="1" parent="1">
          <mxGeometry x="140" y="598" width="40" height="30" as="geometry" />
        </mxCell>
        <mxCell id="Xc-ak-8Ur3aRFszlMYt9-45" value="lan" style="text;html=1;align=center;verticalAlign=middle;resizable=0;points=[];autosize=1;strokeColor=none;fillColor=none;" vertex="1" parent="1">
          <mxGeometry x="220" y="598" width="40" height="30" as="geometry" />
        </mxCell>
        <mxCell id="Xc-ak-8Ur3aRFszlMYt9-53" value="房间" style="text;html=1;align=center;verticalAlign=middle;resizable=0;points=[];autosize=1;strokeColor=none;fillColor=none;" vertex="1" parent="1">
          <mxGeometry x="-35" y="638" width="50" height="30" as="geometry" />
        </mxCell>
        <mxCell id="Xc-ak-8Ur3aRFszlMYt9-54" value="房间" style="text;html=1;align=center;verticalAlign=middle;resizable=0;points=[];autosize=1;strokeColor=none;fillColor=none;" vertex="1" parent="1">
          <mxGeometry x="53.230000000000004" y="640" width="50" height="30" as="geometry" />
        </mxCell>
        <mxCell id="Xc-ak-8Ur3aRFszlMYt9-55" value="房间" style="text;html=1;align=center;verticalAlign=middle;resizable=0;points=[];autosize=1;strokeColor=none;fillColor=none;" vertex="1" parent="1">
          <mxGeometry x="135" y="640" width="50" height="30" as="geometry" />
        </mxCell>
        <mxCell id="Xc-ak-8Ur3aRFszlMYt9-56" value="房间" style="text;html=1;align=center;verticalAlign=middle;resizable=0;points=[];autosize=1;strokeColor=none;fillColor=none;" vertex="1" parent="1">
          <mxGeometry x="215" y="640" width="50" height="30" as="geometry" />
        </mxCell>
        <mxCell id="Xc-ak-8Ur3aRFszlMYt9-58" value="客厅" style="text;html=1;align=center;verticalAlign=middle;resizable=0;points=[];autosize=1;strokeColor=none;fillColor=none;" vertex="1" parent="1">
          <mxGeometry x="640" y="470" width="50" height="30" as="geometry" />
        </mxCell>
        <mxCell id="Xc-ak-8Ur3aRFszlMYt9-59" value="弱电箱" style="text;html=1;align=center;verticalAlign=middle;resizable=0;points=[];autosize=1;strokeColor=none;fillColor=none;" vertex="1" parent="1">
          <mxGeometry x="320" y="288" width="60" height="30" as="geometry" />
        </mxCell>
        <mxCell id="Xc-ak-8Ur3aRFszlMYt9-64" value="入户" style="text;html=1;align=center;verticalAlign=middle;resizable=0;points=[];autosize=1;strokeColor=none;fillColor=none;" vertex="1" parent="1">
          <mxGeometry x="295" y="648" width="50" height="30" as="geometry" />
        </mxCell>
        <mxCell id="Xc-ak-8Ur3aRFszlMYt9-67" value="客厅" style="text;html=1;align=center;verticalAlign=middle;resizable=0;points=[];autosize=1;strokeColor=none;fillColor=none;" vertex="1" parent="1">
          <mxGeometry x="335" y="648" width="50" height="30" as="geometry" />
        </mxCell>
      </root>
    </mxGraphModel>
  </diagram>
</mxfile>
